<svg width="68" height="68" viewBox="0 0 68 68" fill="none" xmlns="http://www.w3.org/2000/svg">
<g clip-path="url(#clip0)">
<path d="M9.84375 9.84375C16.4063 3.28122 24.375 0 33.75 0C43.125 0 51.0937 3.28122 57.6562 9.84375C64.2188 16.4063 67.5 24.375 67.5 33.75C67.5 43.125 64.2188 51.0937 57.6562 57.6562C51.0937 64.2188 43.125 67.5 33.75 67.5C24.375 67.5 16.4063 64.2188 9.84375 57.6562C3.28122 51.0937 0 43.125 0 33.75C0 24.375 3.28122 16.4063 9.84375 9.84375ZM9.31641 38.1445C10.7227 46.1133 15.1172 52.0312 22.5 55.8984C18.164 50.7422 15.5273 44.8243 14.5898 38.1445H9.31641ZM14.5898 29.3555C15.5273 22.6757 18.164 16.7578 22.5 11.6016C15.1172 15.4688 10.7227 21.3867 9.31641 29.3555H14.5898ZM29.3555 49.9219V38.1445H23.5547C24.375 42.3633 26.3086 46.289 29.3555 49.9219ZM29.3555 29.3555V17.5781C26.3086 21.211 24.375 25.1367 23.5547 29.3555H29.3555ZM58.1836 29.3555C56.7773 21.3867 52.3828 15.4688 45 11.6016C49.336 16.7578 51.9727 22.6757 52.9102 29.3555H58.1836ZM38.1445 49.9219C41.1914 46.289 43.125 42.3633 43.9453 38.1445H38.1445V49.9219ZM38.1445 29.3555H43.9453C43.125 25.1367 41.1914 21.211 38.1445 17.5781V29.3555ZM45 55.8984C52.3828 52.0312 56.7773 46.1133 58.1836 38.1445H52.9102C51.9727 44.8243 49.336 50.7422 45 55.8984Z" fill="#FCFCFC"/>
</g>
<defs>
<clipPath id="clip0">
<rect width="67.5" height="67.5" fill="white"/>
</clipPath>
</defs>
</svg>
