<svg width="76" height="53" viewBox="0 0 76 53" fill="none" xmlns="http://www.w3.org/2000/svg">
<g clip-path="url(#clip0)">
<path d="M69.6973 0.263672L40.0781 26.6309C39.7266 26.9238 39.3457 27.1582 38.9355 27.334C38.5254 27.5098 38.0566 27.5977 37.5293 27.5977C37.0605 27.5977 36.6211 27.5098 36.2109 27.334C35.8008 27.1582 35.4199 26.9238 35.0684 26.6309L5.36133 0.263672C5.6543 0.205078 5.99121 0.146485 6.37207 0.087891C6.75293 0.029297 7.14844 0 7.55859 0H67.5C67.9102 0 68.291 0.029297 68.6426 0.087891C68.9941 0.146485 69.3457 0.205078 69.6973 0.263672ZM74.7949 5.44922C74.8535 5.80078 74.9121 6.13769 74.9707 6.45996C75.0293 6.78223 75.0586 7.11914 75.0586 7.4707V45C75.0586 47.0508 74.3262 48.8086 72.8613 50.2734C71.3965 51.7383 69.6094 52.4707 67.5 52.4707H7.55859C5.44921 52.4707 3.66212 51.7383 2.19727 50.2734C0.732415 48.8086 0 47.0508 0 45V7.4707C0 7.11914 0.029297 6.78223 0.087891 6.45996C0.146485 6.13769 0.205078 5.80078 0.263672 5.44922L30.0586 32.2559C31.0547 33.1348 32.1973 33.8379 33.4863 34.3652C34.7754 34.8926 36.123 35.1562 37.5293 35.1562C38.9941 35.1562 40.3711 34.8926 41.6602 34.3652C42.9492 33.8379 44.0918 33.1348 45.0879 32.2559L74.7949 5.44922Z" fill="#FCFCFC"/>
</g>
<defs>
<clipPath id="clip0">
<rect width="75.0586" height="52.4707" fill="white"/>
</clipPath>
</defs>
</svg>
