<svg width="68" height="68" viewBox="0 0 68 68" fill="none" xmlns="http://www.w3.org/2000/svg">
<g clip-path="url(#clip0)">
<path d="M67.3242 19.9512C67.2656 18.5449 67.1045 17.1387 66.8408 15.7324C66.5771 14.3262 66.2109 12.9785 65.7422 11.6895C64.8633 9.40429 63.5596 7.39747 61.8311 5.66894C60.1025 3.94042 58.125 2.63672 55.8984 1.75781C54.5508 1.28906 53.1885 0.922853 51.8115 0.65918C50.4346 0.395506 49.043 0.263672 47.6367 0.263672C45.8203 0.146484 44.1943 0.073242 42.7588 0.043945C41.3232 0.014648 38.3203 0 33.75 0C29.1797 0 26.1621 0.014648 24.6973 0.043945C23.2324 0.073242 21.6211 0.146484 19.8633 0.263672C18.457 0.263672 17.0654 0.395506 15.6885 0.65918C14.3115 0.922853 12.9492 1.28906 11.6016 1.75781C9.37499 2.63672 7.39747 3.94042 5.66894 5.66894C3.94042 7.39747 2.63672 9.40429 1.75781 11.6895C1.28906 12.9785 0.922853 14.3115 0.65918 15.6885C0.395506 17.0654 0.234375 18.457 0.175781 19.8633C0.117187 21.6797 0.073242 23.3057 0.043945 24.7412C0.014648 26.1768 0 29.1797 0 33.75C0 38.3203 0 41.3379 0 42.8027C0 44.2676 0.058593 45.9082 0.175781 47.7246C0.234375 49.1309 0.395506 50.5078 0.65918 51.8555C0.922853 53.2031 1.28906 54.5508 1.75781 55.8984C2.63672 58.1836 3.94042 60.1758 5.66894 61.875C7.39747 63.5742 9.40429 64.8633 11.6895 65.7422C12.9785 66.2695 14.3115 66.6797 15.6885 66.9727C17.0654 67.2656 18.457 67.4121 19.8633 67.4121C21.6797 67.5293 23.3057 67.6025 24.7412 67.6318C26.1768 67.6611 29.1797 67.6758 33.75 67.6758C38.3203 67.6758 41.3379 67.6611 42.8027 67.6318C44.2676 67.6025 45.8789 67.5293 47.6367 67.4121C49.043 67.4121 50.4346 67.2803 51.8115 67.0166C53.1885 66.7529 54.5508 66.3867 55.8984 65.918C58.125 65.0391 60.1025 63.7354 61.8311 62.0068C63.5596 60.2783 64.8633 58.2715 65.7422 55.9863C66.2109 54.6973 66.5771 53.3643 66.8408 51.9873C67.1045 50.6103 67.2656 49.2188 67.3242 47.8125C67.3828 45.9961 67.4268 44.3701 67.4561 42.9346C67.4854 41.499 67.5 38.4961 67.5 33.9258C67.5 29.2969 67.5 26.2647 67.5 24.8291C67.5 23.3935 67.4414 21.7676 67.3242 19.9512ZM33.75 51.0645C31.3476 51.0645 29.0918 50.625 26.9824 49.7461C24.873 48.8086 23.0274 47.5635 21.4453 46.0107C19.8633 44.458 18.6328 42.627 17.7539 40.5176C16.8164 38.4082 16.3477 36.1524 16.3477 33.75C16.3477 31.3476 16.8164 29.0918 17.7539 26.9824C18.6328 24.873 19.8633 23.042 21.4453 21.4893C23.0274 19.9365 24.873 18.6914 26.9824 17.7539C29.0918 16.875 31.3476 16.4355 33.75 16.4355C36.1524 16.4355 38.3789 16.875 40.4297 17.7539C42.5391 18.6914 44.3848 19.9365 45.9668 21.4893C47.5488 23.042 48.7793 24.873 49.6582 26.9824C50.5957 29.0918 51.0645 31.3476 51.0645 33.75C51.0645 36.1524 50.5957 38.4082 49.6582 40.5176C48.7793 42.627 47.5488 44.458 45.9668 46.0107C44.3848 47.5635 42.5391 48.8086 40.4297 49.7461C38.3789 50.625 36.1524 51.0645 33.75 51.0645ZM51.7676 19.8633C50.6543 19.8633 49.7022 19.4678 48.9111 18.6768C48.1201 17.8857 47.7246 16.9336 47.7246 15.8203C47.7246 14.6484 48.1201 13.6816 48.9111 12.9199C49.7022 12.1582 50.6543 11.7773 51.7676 11.7773C52.8809 11.7773 53.833 12.1582 54.624 12.9199C55.415 13.6816 55.8105 14.6484 55.8105 15.8203C55.8105 16.9336 55.415 17.8857 54.624 18.6768C53.833 19.4678 52.8809 19.8633 51.7676 19.8633ZM45 33.75C45 36.8555 43.9014 39.5068 41.7041 41.7041C39.5068 43.9014 36.8555 45 33.75 45C30.6445 45 27.9932 43.9014 25.7959 41.7041C23.5986 39.5068 22.5 36.8555 22.5 33.75C22.5 30.6445 23.5986 27.9932 25.7959 25.7959C27.9932 23.5986 30.6445 22.5 33.75 22.5C36.8555 22.5 39.5068 23.5986 41.7041 25.7959C43.9014 27.9932 45 30.6445 45 33.75Z" fill="#FCFCFC"/>
</g>
<defs>
<clipPath id="clip0">
<rect width="67.5" height="67.6758" fill="white"/>
</clipPath>
</defs>
</svg>
