<svg width="68" height="68" viewBox="0 0 68 68" fill="none" xmlns="http://www.w3.org/2000/svg">
<g clip-path="url(#clip0)">
<path d="M63.7207 0H3.7793C2.7246 0 1.83106 0.366207 1.09863 1.09863C0.366207 1.83106 0 2.7246 0 3.7793V63.7207C0 64.7754 0.366207 65.6689 1.09863 66.4014C1.83106 67.1338 2.7246 67.5 3.7793 67.5H63.7207C64.7754 67.5 65.6689 67.1338 66.4014 66.4014C67.1338 65.6689 67.5 64.7754 67.5 63.7207V3.7793C67.5 2.7246 67.1338 1.83106 66.4014 1.09863C65.6689 0.366207 64.7754 0 63.7207 0ZM20.0391 57.4805H10.0195V25.3125H20.0391V57.4805ZM15.0293 20.918C13.3887 20.918 12.0117 20.3467 10.8984 19.2041C9.78515 18.0615 9.22852 16.6992 9.22852 15.1172C9.22852 13.4766 9.78515 12.0996 10.8984 10.9863C12.0117 9.87304 13.3887 9.31641 15.0293 9.31641C16.6113 9.31641 17.9736 9.87304 19.1162 10.9863C20.2588 12.0996 20.8301 13.4766 20.8301 15.1172C20.8301 16.6992 20.2588 18.0615 19.1162 19.2041C17.9736 20.3467 16.6113 20.918 15.0293 20.918ZM57.4805 57.4805H47.5488V41.8359C47.5488 39.9609 47.3145 38.0713 46.8457 36.167C46.377 34.2627 44.8535 33.3105 42.2754 33.3105C39.6973 33.3105 38.0566 34.1601 37.3535 35.8594C36.6504 37.5586 36.2988 39.4629 36.2988 41.5723V57.4805H26.2793V25.3125H35.8594V29.707H36.0352C36.6797 28.418 37.8076 27.2315 39.4189 26.1475C41.0303 25.0635 43.0664 24.5215 45.5273 24.5215C50.5664 24.5215 53.8184 25.9863 55.2832 28.916C56.7481 31.8457 57.4805 35.4785 57.4805 39.8145V57.4805Z" fill="#FCFCFC"/>
</g>
<defs>
<clipPath id="clip0">
<rect width="67.5" height="67.5" fill="white"/>
</clipPath>
</defs>
</svg>
